<svg width="32" height="32" viewBox="0 0 32 32" fill="none" xmlns="http://www.w3.org/2000/svg">
  <!-- Main quill feather -->
  <path d="M8 28L12 24C14 22 16 20 18 18C20 16 22 14 24 12C25 11 26 10 26 10C26 10 25 11 24 12C22 14 20 16 18 18C16 20 14 22 12 24L8 28Z" fill="#4F46E5"/>

  <!-- Feather barbs/texture -->
  <path d="M12 24C14 22 16 20 18 18C20 16 22 14 24 12" stroke="#3730A3" stroke-width="1" fill="none" opacity="0.6"/>
  <path d="M13 25C15 23 17 21 19 19C21 17 23 15 25 13" stroke="#3730A3" stroke-width="0.8" fill="none" opacity="0.4"/>
  <path d="M14 26C16 24 18 22 20 20C22 18 24 16 26 14" stroke="#3730A3" stroke-width="0.6" fill="none" opacity="0.3"/>

  <!-- Ink tip/nib -->
  <ellipse cx="6" cy="30" rx="2" ry="2.5" fill="#1E1B4B"/>
  <ellipse cx="6.5" cy="29.5" rx="1.2" ry="1.5" fill="#312E81"/>

  <!-- Small highlight -->
  <ellipse cx="7" cy="29" rx="0.5" ry="0.8" fill="#6366F1" opacity="0.7"/>
</svg>
